<?xml version="1.0" encoding="UTF-8"?>
<svg width="464px" height="81px" viewBox="0 0 464 81" version="1.1" xmlns="http://www.w3.org/2000/svg" xmlns:xlink="http://www.w3.org/1999/xlink">
    <title>BruceadOrage</title>
    <g id="页面-1" stroke="none" stroke-width="1" fill="none" fill-rule="evenodd">
        <g id="photo" transform="translate(-234.000000, -158.000000)" fill="#FFFFFF" fill-rule="nonzero">
            <path d="M243.6,216.2 C253.9,216.2 269.1,209 275.3,204 C291.1,191.4 274,184.7 261.1,184 C263.7,182.7 266.3,181.1 268.4,179.2 C272.6,175.3 275.9,168.3 271.3,163.6 L271,163.3 C269.4,161.8 267.6,161.1 265.8,161.1 C260.8,161.1 255.5,166.1 252.4,169.5 C251.4,170.8 250.6,171.7 250.3,171.7 C249.9,171.7 249.8,171 250,169.2 C250.2,166.3 250.3,163.1 250.2,160.1 C250.1,159.4 249.5,158.9 248.8,158.9 C248.1,159 247.6,159.6 247.7,160.3 C247.7,162.4 247.7,164.6 247.6,166.8 C247.3,172.7 247.7,175.3 244.4,180.5 C241.6,185.1 237.8,191.9 236.8,197.2 C236.4,199.5 236.7,203.7 239.5,203.7 C244.8,203.7 247.2,191.5 247.9,187.5 C249,181.7 248.3,178.4 252.3,173.6 C255,170.4 260.5,163.7 265.6,163.7 C266.9,163.7 268.3,164.2 269.5,165.4 C273,168.9 269.8,174.5 266.7,177.3 C264.8,179 262.8,180.3 260.5,181.5 C259.9,181.82 258.74,182.364 257.5704,182.8952 L257.132425,183.093337 C255.53275,183.81425 254.045,184.455 254.1,184.4 C253.8,184.5 253.3,185 253.2,185.4 C253,186.5 254,186.8 255.2,186.8 C256.2,186.8 257.2,186.6 257.8,186.5 L258.1,186.5 C269.6,186.5 289.6,190.9 272,203.4 C266.4,207.3 252.6,213.7 243.6,213.7 C240.9,213.7 237.3,213.3 236.7,210.2 C236.6,209.5 236,209 235.3,209.1 C234.6,209.2 234.1,209.8 234.2,210.5 C235.1,215.2 239.3,216.2 243.6,216.2 Z M239.7,201.2 C237.1,199.5 242.9,187.8 244.2,185.5 C244.5,184.9 245.3,183.4 245.7,183.4 C245.9,183.4 245.9,183.8 245.8,184.7 C245.5,188 243.1,200 239.7,201.2 Z M287.3,209.9 C287.7,209.9 288.2,209.6 288.6,208.7 C289.5,207 295.4,195.7 297,195.7 C297.4,195.7 297.7,196.3 298.4,197.2 C299.5,198.7 301.5,199.7 303.4,199.7 C304.5,199.7 305.5,199.4 306.4,198.8 C307.1,198.2 307,197.2 306.2,196.8 C306,196.8 305.9,196.7 305.8,196.7 C305.1,196.7 304.5,197.4 303.5,197.4 C300.8,197.4 300.2,195.7 298.8,193.9 C298.4,193.4 297.9,193.2 297.4,193.2 C294.5,193.2 290.4,200.5 289.5,202.1 C289.3,202.6 289,203.1 288.9,203.1 C288.82,203.1 288.804,202.972 288.8008,202.6648 L288.8,202.4 L288.8,202.4 C288.9,199.4 289.6,194.8 290.5,191.9 C290.7,191 291.7,189 290.2,188.7 C289.4,188.7 289.1,188.9 288.8,189.7 C287,194.8 286.2,203 286.4,208.4 C286.4,209.3 286.8,209.9 287.3,209.9 Z M309,207 C313.5,207 321.7,198.4 323,198.7 C323.5,200.4 323.1,202 324,204 C324.9,205.9 326.2,206.6 327.7,206.6 C330.9,206.6 335,203.1 337,201.3 L338.7,200 C339.3,199.5 339.3,198.7 338.9,198.2 C338.6,197.9 338.3,197.8 337.9,197.8 C337.6,197.8 337.4,197.9 337.1,198.1 C332.2,202.3 329.4,203.8 327.9,203.8 C324.1,203.8 327.3,195 325.4,194.4 C323.6,193.8 313.2,204.1 309,204.5 C307.7,203.3 311.9,196.5 312.6,195.6 C313.1,195.1 313.2,194.3 312.7,193.8 C312.5,193.5 312.1,193.4 311.7,193.4 C311.5,193.4 311.2,193.4 310.9,193.6 C309.2,196.1 305.1,202.3 306.7,205.5 L306.9,205.9 C307.5,206.7 308.2,207 309,207 Z M344.8,207.1 C346.3,207.1 348,206.7 349.4,206.2 C352.9,205.2 357.5,201.2 359.6,199.4 C360.1,198.9 360.2,198.1 359.7,197.6 C359.5,197.4 359.1,197.2 358.8,197.2 C358.5,197.2 358.2,197.3 357.9,197.6 C356.7,198.6 354,201 352.4,202 C349.8,203.6 347,204.6 344.9,204.6 C342.5,204.6 341.1,203.3 341.7,200 C342.2,197.9 346.2,192.9 348.5,192.9 C348.9,193.1 348.7,193.8 348.4,194.5 C348,195.5 348.3,195.9 348.8,195.9 C349.4,195.9 350.5,195 350.9,193.3 C351.1,192.5 351.1,191.8 350.9,191.4 C350.5,190.7 349.8,190.4 348.9,190.4 C346.2,190.4 342.1,192.9 340.2,197.4 C337.5,204.1 340.3,207.1 344.8,207.1 Z M365.2,206.8 C366.5,206.8 367.8,206.6 369.3,206.1 L369.9,205.9 C373.4,204.9 377.7,201 379.8,199.1 C380.3,198.7 380.3,197.9 379.8,197.4 C379.6,197.1 379.3,197 379.1,197 C378.8,197 378.6,197.1 378.4,197.3 C377.1,198.4 374.4,200.8 372.9,201.7 C370.2,203.3 367.4,204.3 365.3,204.3 C363,204.3 361.5,203 362.2,199.7 C362.3,199.2 362.4,199 362.9,199 C366.2,199.1 372.1,196.3 371.7,192.3 C371.7,192.1 371.7,192 371.6,191.9 L371.3,191.5 C370.6,190.5 369.7,190.1 368.8,190.1 C365.6,190.1 361.7,194.7 360.7,197.1 C358,203.8 360.7,206.8 365.2,206.8 Z M363.9,196.6 C364.9,194.7 366.7,192.7 369,192.7 L369.2,192.8 C370.9,193.6 365.7,196.6 363.9,196.6 Z M409.9,207.3 C411.855556,207.3 413.960494,205.470062 416.191992,203.658796 L416.803704,203.166667 C418.033333,202.188889 419.3,201.266667 420.6,200.7 C421.026087,201.247826 421.387335,201.860491 421.745763,202.478795 L422.053744,203.00877 C422.777505,204.242155 423.56087,205.430435 424.9,206.1 C425.5,206.4 426.1,206.6 426.7,206.6 C430.2,206.6 434.3,202.5 437.4,199.1 C436.8,200.7 436.4,202.3 436.2,203.6 C435.9,205.7 436.3,207 437.2,207 C437.8,207 438.6,206.5 439.6,205.3 C441.4,203.2 445.8,198 448.7,198 C449.2,198 449.7,198.1 450.1,198.5 C450.595,199.04 451.044438,199.650875 451.487041,200.273394 L451.9288,200.8976 C453.305,202.838 454.74,204.7 457.4,204.7 C457.9,204.7 458.5,204.6 459.1,204.5 C461.2,204 464.7,201.3 466.4,200 C467,199.6 467.1,198.8 466.6,198.2 C466.4,197.9 466,197.8 465.6,197.8 C465.4,197.8 465.1,197.9 464.9,198 C461.6,200.7 458.9,202.1 457.6,202.1 C455.1,202.1 454.2,199.2 451.9,196.8 C450.9,195.8 449.9,195.5 448.8,195.5 C447,195.5 445.1,196.6 443.5,197.8 C442.7,198.4 440.4,200.7 439.8,200.8 C439.6,199.5 441.1,196.1 441.7,194.8 C442.2,193.7 441.4,192.9 440.6,192.9 C440.4,192.9 440.2,192.9 440.1,193 C439.9,193 439.7,193.1 439.5,193.3 C437,195.4 430.5,203.8 427.1,203.9 C424.9,203.9 424.1,201.2 422.4,199 C422.2,198.7 422,198.5 421.7,198.4 C421.8,195.5 421.7,191.9 418.4,191.9 C418.1,191.9 417.7,192 417.4,192 C411,193.1 402.7,205.4 409.1,207.2 C409.4,207.2 409.6,207.3 409.9,207.3 Z M410,204.8 C409.9,204.8 409.7,204.7 409.6,204.6 C407.5,203.1 413.9,196.6 415.7,195.4 C416.8,194.7 417.6,194.4 418.2,194.4 C419.3,194.4 419.3,195.8 419.2,198.1 L419.2,198.4 C415.9,199.8 411.7,204.8 410,204.8 Z M479.2,216.5 C479.3,216.5 479.3,216.4 479.4,216.4 C480.1,216.3 480.5,215.7 480.4,215 C479.6,210.1 479.6,205.1 480,200.1 C480.2,196.5 480.4,195.2 481.8,191.7 C483.6,187.3 491.3,164.6 486.6,162.1 C486.4,162 486.2,162 485.9,162 C483.4,162 482.2,168.3 481.9,170 C480.9,174.1 480.1,178.2 479.5,182.4 L479.5,182.6 C479.1,184.8 478.9,187.1 478.6,189.4 C478.4,190.3 478.4,190.6 477.9,190.6 C477.8,190.6 477.5,190.6 477.2,190.5 C476.9,190.5 476.6,190.4 476.3,190.4 C473.4,190.4 471.1,192.8 469.3,194.9 C467.3,197.4 463.6,204.3 467.7,206.4 C468.5,206.9 469.2,207 470,207 C472.4,207 474.5,205 476.1,202.9 C476.6,202.2 477,201.3 477.3,201.3 C477.4,201.3 477.5,201.7 477.5,202.5 C477.3,207.1 477.3,211 478,215.5 C478.1,216.1 478.6,216.5 479.2,216.5 Z M481.7,184.9 C481.6,184.9 481.8,183.4 482.3,180.6 C483,176.1 484,169.8 485.5,165.7 C485.6,165.7 485.7,165.4 485.7,165.6 C485.8,170 484.2,176.5 483,180.8 C482.2,183.6 481.8,184.9 481.7,184.9 Z M469.8,204.6 C469.7,204.6 469.6,204.6 469.4,204.5 C467.6,204.2 468.3,201.8 468.8,200.6 C469.7,198.3 473.3,192.8 476.3,192.8 C476.7,192.8 477,192.9 477.3,193.3 C478.8,195.6 474.1,201.8 472.4,203.3 C471.8,203.9 470.8,204.6 469.8,204.6 Z M541,216.2 C549.7,216.2 558.1,207.2 562.4,200.4 C564.4,197.3 564.5,196.4 566.4,196.4 C567.1,196.4 568.1,196.5 569.5,196.7 L569.8,196.7 C571.4,196.7 571.5,194.9 570.3,194.5 C568,193.6 565.7,194.9 567.2,191 C568.7,187 569.5,184.3 569.6,180 C569.7,174 568.6,167.5 563.4,163.7 C560.6,161.7 557.1,160.9 553.5,160.9 C543.6,160.9 532,166.8 525.7,171.9 C517.3,178.7 510.2,189.8 525.5,193.6 C526.8,193.9 531.1,194.2 531.5,195.3 C532,196.8 527.3,201.8 531.2,210.1 C533.4,214.4 537,216.2 541,216.2 Z M561.4,193.3 C561,193.3 560.6,193.3 560.2,193.2 C554.7,192.7 549.2,192.6 543.7,192.6 C541.6,192.6 538.5,192.5 537.8,192.1 C536.2,191.2 541.7,186.1 542.5,185.3 C542.9,184.8 543,184 542.5,183.5 C542.2,183.3 541.9,183.1 541.6,183.1 C541.3,183.1 540.9,183.3 540.7,183.5 C539.6,184.6 538.6,185.6 537.6,186.8 C534.4,190.6 534.6,192.1 532.1,192.1 C531.2,192.1 529.9,191.9 528.1,191.6 C515,189.1 517.9,182.2 525.8,175 C531.5,170.1 543.8,163.4 553.5,163.4 C559,163.4 563.7,165.5 565.9,171.3 C568.2,177.5 567.3,183.4 565.2,189.5 C564.2,192.3 563.7,193.3 561.4,193.3 Z M540.9,213.8 C538.4,213.8 536.1,212.7 534.1,210 C532.1,206.9 531.7,204.3 532.5,200.7 C533.6,196.1 534.1,194.9 538.9,194.9 C543.4,195 547.8,195.1 552.2,195.3 C553.1,195.4 554.1,195.4 555,195.5 C556.5,195.5 560.5,195.5 561.6,196.2 C561.5,197.8 558,202.2 556.8,203.6 C553.4,207.8 546.8,213.8 540.9,213.8 Z M572.2,209.9 C572.6,209.9 573.1,209.6 573.5,208.7 C574.4,207 580.3,195.7 581.9,195.7 C582.3,195.7 582.6,196.3 583.3,197.2 C584.4,198.7 586.4,199.7 588.3,199.7 C589.4,199.7 590.4,199.4 591.3,198.8 C592,198.2 591.9,197.2 591.1,196.8 C590.9,196.8 590.8,196.7 590.7,196.7 C590,196.7 589.4,197.4 588.4,197.4 C585.7,197.4 585.1,195.7 583.7,193.9 C583.3,193.4 582.8,193.2 582.3,193.2 C579.4,193.2 575.3,200.5 574.4,202.1 C574.2,202.6 573.9,203.1 573.8,203.1 C573.72,203.1 573.704,202.972 573.7008,202.6648 L573.7,202.4 L573.7,202.4 C573.8,199.4 574.5,194.8 575.4,191.9 C575.6,191 576.6,189 575.1,188.7 C574.3,188.7 574,188.9 573.7,189.7 C571.9,194.8 571.1,203 571.3,208.4 C571.3,209.3 571.7,209.9 572.2,209.9 Z M593.7,207.3 C595.655556,207.3 597.760494,205.470062 599.991992,203.658796 L600.603704,203.166667 C601.833333,202.188889 603.1,201.266667 604.4,200.7 C604.826087,201.247826 605.187335,201.860491 605.545763,202.478795 L605.853744,203.00877 C606.577505,204.242155 607.36087,205.430435 608.7,206.1 C609.3,206.4 609.9,206.6 610.5,206.6 C614,206.6 618.1,202.5 621.2,199.1 C620.6,200.7 620.2,202.3 620,203.6 C619.7,205.7 620.1,207 621,207 C621.6,207 622.4,206.5 623.4,205.3 C625.2,203.2 629.6,198 632.5,198 C633,198 633.5,198.1 633.9,198.5 C634.395,199.04 634.844438,199.650875 635.287041,200.273394 L635.7288,200.8976 C637.105,202.838 638.54,204.7 641.2,204.7 C641.7,204.7 642.3,204.6 642.9,204.5 C645,204 648.5,201.3 650.2,200 C650.8,199.6 650.9,198.8 650.4,198.2 C650.2,197.9 649.8,197.8 649.4,197.8 C649.2,197.8 648.9,197.9 648.7,198 C645.4,200.7 642.7,202.1 641.4,202.1 C638.9,202.1 638,199.2 635.7,196.8 C634.7,195.8 633.7,195.5 632.6,195.5 C630.8,195.5 628.9,196.6 627.3,197.8 C626.5,198.4 624.2,200.7 623.6,200.8 C623.4,199.5 624.9,196.1 625.5,194.8 C626,193.7 625.2,192.9 624.4,192.9 C624.2,192.9 624,192.9 623.9,193 C623.7,193 623.5,193.1 623.3,193.3 C620.8,195.4 614.3,203.8 610.9,203.9 C608.7,203.9 607.9,201.2 606.2,199 C606,198.7 605.8,198.5 605.5,198.4 C605.6,195.5 605.5,191.9 602.2,191.9 C601.9,191.9 601.5,192 601.2,192 C594.8,193.1 586.5,205.4 592.9,207.2 C593.2,207.2 593.4,207.3 593.7,207.3 Z M593.8,204.8 C593.7,204.8 593.5,204.7 593.4,204.6 C591.3,203.1 597.7,196.6 599.5,195.4 C600.6,194.7 601.4,194.4 602,194.4 C603.1,194.4 603.1,195.8 603,198.1 L603,198.4 C599.7,199.8 595.5,204.8 593.8,204.8 Z M652.3,238.4 C652.7,238.4 653.2,238.3 653.7,238 C660.6,234.5 664.3,219 665.8,211.6 C665.9,211.2 666,210.9 666.2,210.6 C666.8,209.2 674.7,201.1 676.8,198.9 C677.9,197.7 676.7,196.8 675.7,196.8 C675.5,196.8 675.3,196.8 675.2,196.9 C674.552941,197.417647 672.994079,199.070396 671.390339,200.790645 L670.733958,201.495442 C668.843214,203.526759 667.054902,205.44902 666.8,205.5 C666.2,205.6 667.6,199.7 663.6,198.8 C663.2,195.9 662.4,192.5 659.2,192.5 C658.8,192.5 658.3,192.6 657.9,192.7 C651.7,194.2 644.5,206.2 650.5,207 L650.9,207 C653.2,207 655.2,205.5 657.1,204.2 C659.2,202.7 661.1,201.1 662.4,201.1 C663.5,201.1 664.2,202.3 664.2,205.8 C664.1,207.2 664.3,208 663.4,209.1 C657.7,215.6 651.9,223.8 650.2,232.5 C649.8,234.6 649.9,238.4 652.3,238.4 Z M651,204.6 C650.9,204.6 650.8,204.6 650.8,204.5 C649.8,203 654.7,197.4 656.2,196.3 C657.4,195.4 658.3,195 659,195 C660.3,195 660.8,196.6 661.1,199 C657.2,200.2 652.4,204.6 651,204.6 Z M652.6,235.8 C651,231.9 659,218.6 661.6,215 C662.1,214.4 662.5,213.8 662.6,213.8 C662.8,213.8 662.7,214.2 662.5,215.1 C661.2,220.5 657.3,231.9 653,235.5 C652.8,235.7 652.7,235.7 652.6,235.8 Z M682.3,206.8 C683.6,206.8 684.9,206.6 686.4,206.1 L687,205.9 C690.5,204.9 694.8,201 696.9,199.1 C697.4,198.7 697.4,197.9 696.9,197.4 C696.7,197.1 696.4,197 696.2,197 C695.9,197 695.7,197.1 695.5,197.3 C694.2,198.4 691.5,200.8 690,201.7 C687.3,203.3 684.5,204.3 682.4,204.3 C680.1,204.3 678.6,203 679.3,199.7 C679.4,199.2 679.5,199 680,199 C683.3,199.1 689.2,196.3 688.8,192.3 C688.8,192.1 688.8,192 688.7,191.9 L688.4,191.5 C687.7,190.5 686.8,190.1 685.9,190.1 C682.7,190.1 678.8,194.7 677.8,197.1 C675.1,203.8 677.8,206.8 682.3,206.8 Z M681,196.6 C682,194.7 683.8,192.7 686.1,192.7 L686.3,192.8 C688,193.6 682.8,196.6 681,196.6 Z" id="BruceadOrage"></path>
        </g>
    </g>
</svg>