<?xml version="1.0" encoding="UTF-8"?>
<svg width="10px" height="13px" viewBox="0 0 10 13" version="1.1" xmlns="http://www.w3.org/2000/svg" xmlns:xlink="http://www.w3.org/1999/xlink">
    <title>形状</title>
    <g id="页面-1" stroke="none" stroke-width="1" fill="none" fill-rule="evenodd">
        <g id="电子版" transform="translate(-15.000000, -420.000000)" fill="#2C2C2C" fill-rule="nonzero">
            <g id="编组" transform="translate(13.000000, 416.200000)">
                <g id="地点" transform="translate(0.000000, 2.600000)">
                    <path d="M6.93333333,1.20487956 C5.58199874,1.20639068 4.30628325,1.82868895 3.47324942,2.89272002 C2.6402156,3.95675109 2.34223866,5.34452444 2.66505572,6.65673503 C3.11218513,8.47237632 6.51168372,12.9559994 6.65634324,13.1499746 C6.72277724,13.2363728 6.82557939,13.2870049 6.93456623,13.2870049 C7.04355306,13.2870049 7.14635521,13.2363728 7.21278921,13.1499746 C7.35744873,12.9592871 10.7569473,8.47484211 11.2040767,6.65673503 C11.5273368,5.34406934 11.2291934,3.95566489 10.3955235,2.89143617 C9.56185359,1.82720746 8.28521648,1.20531188 6.93333333,1.20487956 Z M6.93333333,7.35866322 C5.9630265,7.35775477 5.17708822,6.5705903 5.17769285,5.60028323 C5.17829818,4.62997617 5.96521742,3.84379236 6.93552463,3.84409455 C7.90583184,3.84439691 8.69226152,4.63107086 8.69226152,5.60137811 C8.69226152,6.06772385 8.50689417,6.5149453 8.1769838,6.84454733 C7.84707344,7.17414937 7.39967887,7.35909869 6.93333333,7.35866322 Z" id="形状"></path>
                </g>
            </g>
        </g>
    </g>
</svg>