<?xml version="1.0" encoding="UTF-8"?>
<svg width="12px" height="11px" viewBox="0 0 12 11" version="1.1" xmlns="http://www.w3.org/2000/svg" xmlns:xlink="http://www.w3.org/1999/xlink">
    <title>囍</title>
    <g id="页面-1" stroke="none" stroke-width="1" fill="none" fill-rule="evenodd">
        <g id="电子版" transform="translate(-32.000000, -50.000000)" fill="#D31B1B" fill-rule="nonzero">
            <path d="M42.6469333,53.1998667 C42.6873778,53.1998667 42.7298444,53.1836889 42.7743333,53.1513333 C42.8188222,53.1189778 42.8410667,53.0866222 42.8410667,53.0542667 C42.8410667,53.03 42.8046667,52.9855111 42.7318667,52.9208 L42.7318667,52.9208 L42.0888,52.3869333 C42.0079111,52.3222222 41.9553333,52.2898667 41.9310667,52.2898667 C41.9068,52.2898667 41.8704,52.3222222 41.8218667,52.3869333 L41.8218667,52.3869333 L41.4821333,52.8722667 L40.7905333,52.8722667 L40.7905333,51.9137333 L43.0352,51.9137333 C43.1322667,51.9137333 43.2131556,51.8813778 43.2778667,51.8166667 C43.3021333,51.8004889 43.3142667,51.7843111 43.3142667,51.7681333 C43.3142667,51.7276889 43.2697778,51.6670222 43.1808,51.5861333 L43.1808,51.5861333 L42.5256,51.0158667 C42.4366222,50.9349778 42.3719111,50.8945333 42.3314667,50.8945333 C42.3072,50.8945333 42.2667556,50.9309333 42.2101333,51.0037333 L42.2101333,51.0037333 L41.7854667,51.5982667 L40.7905333,51.5982667 L40.7905333,50.7368 L41.0089333,50.5426667 C41.0574667,50.5022222 41.0817333,50.4577333 41.0817333,50.4092 C41.0817333,50.3525778 41.0129778,50.3161778 40.8754667,50.3 L40.8754667,50.3 L40.0504,50.1665333 L39.9048,50.1422667 C39.8643556,50.1341778 39.8360444,50.1544 39.8198667,50.2029333 L39.8198667,50.2029333 L39.8684,50.9916 L39.8684,51.5982667 L38.4852,51.5982667 C38.3881333,51.5982667 38.3396,51.6508444 38.3396,51.756 C38.3396,51.8611556 38.3921778,51.9137333 38.4973333,51.9137333 L38.4973333,51.9137333 L39.8684,51.9137333 L39.8684,52.8722667 L38.6550667,52.8722667 C38.5660889,52.8722667 38.5216,52.9288889 38.5216,53.0421333 C38.5216,53.1472889 38.5701333,53.1998667 38.6672,53.1998667 L38.6672,53.1998667 L42.6469333,53.1998667 Z M37.8421333,53.1998667 C37.8906667,53.1998667 37.9392,53.1756 37.9877333,53.1270667 C38.0200889,53.0866222 38.0362667,53.0664 38.0362667,53.0664 L38.0362667,53.0664 L38.0362667,53.0542667 C38.0281778,53.0057333 38.0039111,52.9612444 37.9634667,52.9208 L37.9634667,52.9208 L37.4174667,52.4354667 C37.3527556,52.3788444 37.3042222,52.3505333 37.2718667,52.3505333 C37.2476,52.3505333 37.2071556,52.3869333 37.1505333,52.4597333 L37.1505333,52.4597333 L36.8714667,52.8722667 L36.0828,52.8722667 L36.0828,51.9137333 L38.0241333,51.9137333 C38.1616444,51.9137333 38.2304,51.8732889 38.2304,51.7924 C38.2304,51.7600444 38.2020889,51.7155556 38.1454667,51.6589333 L38.1454667,51.6589333 L37.7329333,51.2464 C37.6196889,51.1331556 37.5428444,51.0765333 37.5024,51.0765333 C37.4700444,51.0765333 37.4255556,51.1088889 37.3689333,51.1736 L37.3689333,51.1736 L37.0656,51.5982667 L36.0828,51.5982667 L36.0828,50.7489333 L36.2890667,50.6154667 C36.3295111,50.5831111 36.3497333,50.5507556 36.3497333,50.5184 C36.3497333,50.4536889 36.3012,50.4132444 36.2041333,50.3970667 L36.2041333,50.3970667 L35.3912,50.2029333 L35.2698667,50.1786667 L35.2577333,50.1786667 C35.2577333,50.1786667 35.2456,50.1827111 35.2213333,50.1908 C35.1889778,50.2069778 35.1687556,50.2231556 35.1606667,50.2393333 L35.1606667,50.2393333 L35.2213333,50.9916 L35.2092,51.5982667 L32.7218667,51.5982667 C32.6248,51.5982667 32.5762667,51.6548889 32.5762667,51.7681333 C32.5762667,51.8652 32.6288444,51.9137333 32.734,51.9137333 L32.734,51.9137333 L35.2092,51.9137333 L35.2092,52.8722667 L33.4862667,52.8722667 C33.3892,52.8722667 33.3406667,52.9288889 33.3406667,53.0421333 C33.3406667,53.1472889 33.3932444,53.1998667 33.4984,53.1998667 L33.4984,53.1998667 L37.8421333,53.1998667 Z M34.1657333,56.0269333 C34.1657333,56.0269333 34.2061778,56.0188444 34.2870667,56.0026667 C34.4488444,55.9622222 34.5418667,55.9379556 34.5661333,55.9298667 C34.6632,55.8813333 34.7117333,55.8085333 34.7117333,55.7114667 L34.7117333,55.7114667 L34.7117333,55.6265333 L36.6530667,55.6265333 L36.6530667,55.7721333 C36.6530667,55.9015556 36.738,55.9662667 36.9078667,55.9662667 C37.0858222,55.9662667 37.2476,55.9298667 37.3932,55.8570667 C37.5226222,55.8085333 37.5913778,55.7478667 37.5994667,55.6750667 L37.5994667,55.6750667 L37.5630667,55.032 L37.5630667,54.4253333 L37.8057333,54.2190667 C37.8461778,54.1867111 37.8664,54.1543556 37.8664,54.122 C37.8664,54.0815556 37.8340444,54.0411111 37.7693333,54.0006667 L37.7693333,54.0006667 L37.0777333,53.5517333 C36.9887556,53.4951111 36.9280889,53.4668 36.8957333,53.4668 C36.8714667,53.4668 36.8310222,53.5112889 36.7744,53.6002667 L36.7744,53.6002667 L36.6409333,53.8429333 L34.6025333,53.8429333 L34.0322667,53.5396 L33.8988,53.4789333 L33.8745333,53.4789333 C33.8502667,53.4951111 33.8381333,53.5072444 33.8381333,53.5153333 L33.8381333,53.5153333 L33.8745333,54.1462667 L33.8745333,55.2382667 L33.8381333,55.8085333 C33.8381333,55.8570667 33.8624,55.9015556 33.9109333,55.942 C33.9999111,55.9986222 34.0848444,56.0269333 34.1657333,56.0269333 Z M38.9705333,55.9784 C39.0918667,55.9784 39.2172444,55.9379556 39.3466667,55.8570667 C39.4032889,55.8247111 39.4396889,55.7559556 39.4558667,55.6508 L39.4558667,55.6508 L41.3244,55.6508 L41.3122667,55.7357333 C41.3122667,55.8732444 41.4052889,55.942 41.5913333,55.942 C41.8178222,55.942 42.0038667,55.8772889 42.1494667,55.7478667 C42.198,55.6993333 42.2222667,55.6467556 42.2222667,55.5901333 L42.2222667,55.5901333 L42.1858667,55.1654667 L42.1858667,54.3646667 L42.4285333,54.1705333 C42.4689778,54.1381778 42.4892,54.1098667 42.4892,54.0856 C42.4892,54.0451556 42.4528,54.0006667 42.38,53.9521333 L42.38,53.9521333 L41.6762667,53.5396 C41.6115556,53.4991556 41.5589778,53.4789333 41.5185333,53.4789333 C41.5104444,53.4789333 41.4780889,53.5193778 41.4214667,53.6002667 L41.4214667,53.6002667 L41.2758667,53.8429333 L39.2981333,53.8429333 L38.8006667,53.6245333 L38.7036,53.5881333 L38.6914667,53.5881333 C38.6914667,53.5881333 38.6813556,53.5962222 38.6611333,53.6124 C38.6409111,53.6285778 38.6308,53.6407111 38.6308,53.6488 L38.6308,53.6488 L38.6672,54.3404 L38.6672,55.1290667 L38.6308,55.8206667 C38.6308,55.8692 38.6672,55.9056 38.74,55.9298667 C38.8370667,55.9622222 38.9139111,55.9784 38.9705333,55.9784 Z M41.3244,55.3353333 L39.4558667,55.3353333 L39.4558667,54.1584 L41.3244,54.1584 L41.3244,55.3353333 Z M36.6530667,55.3110667 L34.7117333,55.3110667 L34.7117333,54.1584 L36.6530667,54.1584 L36.6530667,55.3110667 Z M36.0464,57.1674667 C36.0706667,57.1674667 36.1070667,57.1432 36.1556,57.0946667 L36.1556,57.0946667 L36.3497333,56.9126667 C36.4872444,56.7670667 36.6247556,56.6336 36.7622667,56.5122667 L36.7622667,56.5122667 L37.0049333,56.4394667 C37.0777333,56.4232889 37.1141333,56.3949778 37.1141333,56.3545333 C37.1141333,56.3221778 37.0817778,56.2898222 37.0170667,56.2574667 L37.0170667,56.2574667 L36.4953333,55.9784 C36.4063556,55.9379556 36.3416444,55.9177333 36.3012,55.9177333 C36.2850222,55.9177333 36.2728889,55.9460444 36.2648,56.0026667 L36.2648,56.0026667 L36.2405333,56.1604 C36.2243556,56.2979111 36.1636889,56.5284444 36.0585333,56.852 L36.0585333,56.852 L35.9978667,57.034 C35.9897778,57.0582667 35.9857333,57.0784889 35.9857333,57.0946667 C35.9857333,57.1432 36.0059556,57.1674667 36.0464,57.1674667 Z M43.1322667,57.4465333 C43.1484444,57.4465333 43.1808,57.4263111 43.2293333,57.3858667 C43.2536,57.3616 43.2657333,57.3413778 43.2657333,57.3252 C43.2657333,57.2928444 43.2414667,57.2564444 43.1929333,57.216 L43.1929333,57.216 L42.6833333,56.7792 C42.6267111,56.7225778 42.5822222,56.6942667 42.5498667,56.6942667 C42.5336889,56.6942667 42.4972889,56.7306667 42.4406667,56.8034667 L42.4406667,56.8034667 L42.1737333,57.1310667 L40.8633333,57.1310667 L40.9846667,57.0704 L41.1424,56.9126667 C41.3041778,56.7347111 41.4376444,56.5972 41.5428,56.5001333 L41.5428,56.5001333 L41.7490667,56.4273333 C41.8461333,56.4030667 41.8946667,56.3666667 41.8946667,56.3181333 C41.8946667,56.2938667 41.8461333,56.2574667 41.7490667,56.2089333 L41.7490667,56.2089333 L41.2516,55.9784 C41.2192444,55.9622222 41.1909333,55.9541333 41.1666667,55.9541333 C41.1343111,55.9541333 41.1100444,55.9824444 41.0938667,56.0390667 L41.0938667,56.0390667 L41.0453333,56.2574667 L40.9604,56.5486667 L40.8876,56.8034667 L40.8269333,57.0097333 C40.8188444,57.0259111 40.8148,57.0461333 40.8148,57.0704 C40.8148,57.1027556 40.8269333,57.1229778 40.8512,57.1310667 L40.8512,57.1310667 L38.4124,57.1310667 C38.3234222,57.1310667 38.2789333,57.1876889 38.2789333,57.3009333 C38.2789333,57.398 38.3274667,57.4465333 38.4245333,57.4465333 L38.4245333,57.4465333 L43.1322667,57.4465333 Z M34.9301333,57.1310667 C35.0272,57.1310667 35.1080889,57.0987111 35.1728,57.034 C35.2536889,56.9612 35.2941333,56.8722222 35.2941333,56.7670667 C35.2941333,56.4758667 35.0555111,56.2655556 34.5782667,56.1361333 C34.4164889,56.1037778 34.3234667,56.0876 34.2992,56.0876 C34.2344889,56.0876 34.2021333,56.1078222 34.2021333,56.1482667 C34.2021333,56.1725333 34.2425778,56.2170222 34.3234667,56.2817333 C34.4448,56.3788 34.5337778,56.5284444 34.5904,56.7306667 C34.6227556,56.8924444 34.6551111,56.9895111 34.6874667,57.0218667 C34.7602667,57.0946667 34.8411556,57.1310667 34.9301333,57.1310667 Z M39.8684,57.0946667 C39.9573778,57.0946667 40.0362444,57.0582667 40.105,56.9854667 C40.1737556,56.9126667 40.2081333,56.8277333 40.2081333,56.7306667 C40.2081333,56.488 40.0180444,56.2979111 39.6378667,56.1604 C39.4922667,56.1118667 39.3668889,56.0876 39.2617333,56.0876 C39.1970222,56.0876 39.1646667,56.1037778 39.1646667,56.1361333 C39.1646667,56.1684889 39.2172444,56.2210667 39.3224,56.2938667 C39.4356444,56.3666667 39.5044,56.4920444 39.5286667,56.67 C39.5448444,56.8398667 39.5772,56.9490667 39.6257333,56.9976 C39.6904444,57.0623111 39.7713333,57.0946667 39.8684,57.0946667 Z M37.7814667,57.4950667 C37.9351556,57.4950667 38.012,57.4546222 38.012,57.3737333 C38.012,57.3494667 37.9917778,57.3171111 37.9513333,57.2766667 L37.9513333,57.2766667 L37.5630667,56.9005333 C37.4740889,56.8196444 37.4174667,56.7792 37.3932,56.7792 C37.3770222,56.7792 37.3446667,56.8115556 37.2961333,56.8762667 L37.2961333,56.8762667 L37.0534667,57.1796 L32.8189333,57.1796 C32.7218667,57.1796 32.6733333,57.2362222 32.6733333,57.3494667 C32.6733333,57.4465333 32.7218667,57.4950667 32.8189333,57.4950667 L32.8189333,57.4950667 L37.7814667,57.4950667 Z M38.7642667,60.7832 C38.7642667,60.7832 38.8492,60.7629778 39.0190667,60.7225333 C39.2212889,60.674 39.3224,60.5769333 39.3224,60.4313333 L39.3224,60.4313333 L39.3224,60.0430667 L41.3972,60.0430667 L41.3972,60.3585333 C41.3972,60.5122222 41.4861778,60.5890667 41.6641333,60.5890667 C41.8582667,60.5890667 42.0402667,60.5243556 42.2101333,60.3949333 C42.2829333,60.3383111 42.3193333,60.2776444 42.3193333,60.2129333 L42.3193333,60.2129333 L42.2829333,59.6548 L42.2829333,58.4050667 L42.5134667,58.2352 C42.5539111,58.2028444 42.5741333,58.1704889 42.5741333,58.1381333 C42.5741333,58.0976889 42.5417778,58.0572444 42.4770667,58.0168 L42.4770667,58.0168 L41.8097333,57.5921333 C41.7126667,57.5274222 41.6560444,57.4950667 41.6398667,57.4950667 C41.6156,57.4950667 41.5751556,57.5436 41.5185333,57.6406667 L41.5185333,57.6406667 L41.3365333,57.944 L39.2617333,57.944 L38.7036,57.6892 L38.5701333,57.6285333 L38.558,57.6285333 L38.5337333,57.6406667 C38.4771111,57.6649333 38.4488,57.6932444 38.4488,57.7256 L38.4488,57.7256 L38.4973333,58.5506667 L38.4973333,59.7154667 L38.4488,60.6376 C38.4488,60.6942222 38.5377778,60.7427556 38.7157333,60.7832 L38.7157333,60.7832 L38.7642667,60.7832 Z M34.0201333,60.7104 C34.2466222,60.7104 34.4245778,60.6497333 34.554,60.5284 C34.5944444,60.4798667 34.6146667,60.4151556 34.6146667,60.3342667 L34.6146667,60.3342667 L34.6146667,60.0430667 L36.7622667,60.0430667 L36.7622667,60.2978667 C36.7622667,60.4434667 36.8714667,60.5162667 37.0898667,60.5162667 C37.2516444,60.5162667 37.4174667,60.4556 37.5873333,60.3342667 C37.6520444,60.2776444 37.6884444,60.2169778 37.6965333,60.1522667 L37.6965333,60.1522667 L37.6601333,59.6548 L37.6601333,58.4657333 L37.8421333,58.3201333 C37.9149333,58.2554222 37.9513333,58.2068889 37.9513333,58.1745333 C37.9513333,58.1502667 37.9108889,58.1098222 37.83,58.0532 L37.83,58.0532 L37.1869333,57.6285333 C37.1060444,57.58 37.0615556,57.5557333 37.0534667,57.5557333 C37.0292,57.5557333 36.9847111,57.6002222 36.92,57.6892 L36.92,57.6892 L36.7744,57.9197333 L34.4690667,57.9197333 L33.8745333,57.6406667 L33.8017333,57.6164 L33.7896,57.6164 C33.7815111,57.6164 33.7693778,57.6204444 33.7532,57.6285333 C33.7208444,57.6447111 33.7046667,57.6649333 33.7046667,57.6892 L33.7046667,57.6892 L33.7532,58.3565333 L33.7532,59.7397333 L33.7046667,60.5162667 C33.7046667,60.5405333 33.7168,60.5728889 33.7410667,60.6133333 C33.7976889,60.6780444 33.8907111,60.7104 34.0201333,60.7104 Z M36.7622667,59.7154667 L34.6146667,59.7154667 L34.6146667,58.2352 L36.7622667,58.2352 L36.7622667,59.7154667 Z M41.3972,59.7154667 L39.3224,59.7154667 L39.3224,58.2594667 L41.3972,58.2594667 L41.3972,59.7154667 Z" id="囍"></path>
        </g>
    </g>
</svg>